<?xml version="1.0"?>
<svg version="1.1" xmlns="http://www.w3.org/2000/svg" width="350" height="100" style=""><path fill="#ffffff" d="M23.88,69.4l0-18.8l-3.8,0l-1,3.8l-3.68,0l0-8.6l23.2,0l0,8.6l-3.72,0l-1-3.8l-3.8,0l0,18.8l3.8,1.2l0,3.4l-13.8,0l0-3.4z M56.8204,74l-0.72-2.6s-3.08,3-6.48,3c-3.88,0-6.24-2.28-6.24-6.28c0-4.72,3.56-6.6,9.64-6.6l2.8,0l0-2.2c0-2.04-1.08-2.92-3.08-2.92c-2.04,0-3.52,0.6-3.52,0.6l-0.6,2.52l-3.6,0l-0.28-5.92s4.84-1.6,8.68-1.6c6.08,0,8.4,2.12,8.4,7.92l0,9.88l3,0.72l0,3.2z M55.8204,64.92l-2.28,0c-3.12,0-4.36,0.8-4.36,2.6c0,1.52,0.84,2.4,2.36,2.4c2.12,0,4.28-2.32,4.28-2.32l0-2.68z M73.7208,67l0.32,2.6s1.4,0.4,3.36,0.4c2.2,0,3.28-0.68,3.28-1.96c0-3.28-10.68-2.08-10.68-9.2c0-5,4-6.84,8.24-6.84c3.6,0,7.44,1.2,7.44,1.2l-0.16,6l-3.4,0l-0.6-2.4s-1.16-0.4-2.76-0.4c-1.72,0-2.76,0.72-2.76,2.04c0,3.24,10.68,1.84,10.68,8.76c0,4.6-3.72,7.2-9.2,7.2c-3.8,0-7.36-0.88-7.36-0.88l0-6.52l3.6,0z M100.8612,60.44l2.64,0l2.72-4.08l-1.76-0.56l0-3.2l10.32-0.2l0,3.4l-2.8,0.52l-3.72,5.24l4.48,8.28l3.04,0.96l0,3.2l-7.4,0l-4.96-9.76l-2.56,0l0,5.56l2.2,1l0,3.2l-11.4,0l0-3.2l3.2-1l0-22.48l-3.2-0.8l0-3.2l9.2-0.32l0,17.44z M132.542,74l0-3.4l3-1.2l0-18.8l-3-1.2l0-3.4l10.32-0.2l6,13.32l6.28-13.12l9.6-0.2l0,3.6l-2.88,1.2l0,18.8l3,1.2l0,3.4l-11.92,0l0-3.4l3.12-1.2l0-15.04l-1.08,2.64l-4.52,9.4l-4.32,0.2l-4.6-9.48l-0.68-2.08l0,14.36l3.08,1.2l0,3.4l-11.4,0z M184.0824,74l-0.72-2.6s-3.08,3-6.48,3c-3.88,0-6.24-2.28-6.24-6.28c0-4.72,3.56-6.6,9.64-6.6l2.8,0l0-2.2c0-2.04-1.08-2.92-3.08-2.92c-2.04,0-3.52,0.6-3.52,0.6l-0.6,2.52l-3.6,0l-0.28-5.92s4.84-1.6,8.68-1.6c6.08,0,8.4,2.12,8.4,7.92l0,9.88l3,0.72l0,3.2z M183.0824,64.92l-2.28,0c-3.12,0-4.36,0.8-4.36,2.6c0,1.52,0.84,2.4,2.36,2.4c2.12,0,4.28-2.32,4.28-2.32l0-2.68z M205.0628,70.4l5.92,0c5.08,0,8,2.2,8,6.2c0,4.4-3.52,7.6-11.2,7.6c-6.28,0-10.32-1.4-10.32-5.8c0-3.44,4.2-4.8,4.2-4.8s-2.4-0.36-2.4-2.64c0-1.16,1.6-3.76,2.08-4.52c-0.96-0.64-3.08-2.36-3.08-6.24c0-5.48,4.12-8.2,9.6-8.2c2.32,0,3.96,0.6,4.72,0.96l6.88-0.16l0,3.2l-3.28,0.56c0.08,0.36,0.68,1.44,0.68,3.16c0,5.8-4.08,8.2-9.6,8.2c-1.08,0-1.88-0.2-2.04-0.2z M207.6628,56.12c-2.4,0-3.4,1.28-3.4,3.8c0,2.4,0.92,4,3.2,4c2.52,0,3.4-1.32,3.4-4c0-2.52-1-3.8-3.2-3.8z M209.3828,74.8l-4.2,0s-1.92,0.88-1.92,2.6c0,2,1.72,2.4,5,2.4c3.6,0,5.12-0.8,5.12-2.72c0-1.8-1.32-2.28-4-2.28z M226.9232,45.8c0-2.28,1.64-3.6,3.44-3.6c2.08,0,3.36,1.08,3.36,3.6c0,2.36-1.72,3.64-3.36,3.64c-2.16,0-3.44-1.28-3.44-3.64z M233.6432,69.8l2.8,1l0,3.2l-12,0l0-3.2l3.2-1l0-13l-3.2-1l0-3.2l9.2-0.2l0,17.4z M258.8236,67.48l2,3.52c-1,0.88-4.12,3.4-8.6,3.4c-6.6,0-10.4-4.08-10.4-10.88c0-7.12,4-11.52,11-11.52c3.44,0,7,1.4,7,1.4l-0.2,6.56l-3.6,0l-0.56-2.84s-1.16-0.32-2.76-0.32c-2.88,0-4.68,1.92-4.68,5.92c0,4.36,1.68,6.88,5,6.88c2.8,0,4.56-1.4,5.8-2.12z M268.084,45.8c0-2.28,1.64-3.6,3.44-3.6c2.08,0,3.36,1.08,3.36,3.6c0,2.36-1.72,3.64-3.36,3.64c-2.16,0-3.44-1.28-3.44-3.64z M274.804,69.8l2.8,1l0,3.2l-12,0l0-3.2l3.2-1l0-13l-3.2-1l0-3.2l9.2-0.2l0,17.4z M296.6244,74l-0.72-2.6s-3.08,3-6.48,3c-3.88,0-6.24-2.28-6.24-6.28c0-4.72,3.56-6.6,9.64-6.6l2.8,0l0-2.2c0-2.04-1.08-2.92-3.08-2.92c-2.04,0-3.52,0.6-3.52,0.6l-0.6,2.52l-3.6,0l-0.28-5.92s4.84-1.6,8.68-1.6c6.08,0,8.4,2.12,8.4,7.92l0,9.88l3,0.72l0,3.2z M295.6244,64.92l-2.28,0c-3.12,0-4.36,0.8-4.36,2.6c0,1.52,0.84,2.4,2.36,2.4c2.12,0,4.28-2.32,4.28-2.32l0-2.68z M318.2848,52.4l0.28,2.76s3.8-3.08,7.36-3.08c3.88,0,6.08,2.76,6.08,7.12l0,10.6l2.8,1l0,3.2l-11,0l0-3.2l2.2-1l0-9.52c0-1.84-1.04-3.2-2.72-3.2c-2.48,0-4.28,2.28-4.28,2.28l0,10.44l2.2,1l0,3.2l-11.4,0l0-3.2l3.2-1l0-13l-3.2-1l0-3.2z"/><path fill="#" d=""/></svg>
